<?xml version="1.0" standalone="no"?>
<!DOCTYPE svg PUBLIC "-//W3C//DTD SVG 20010904//EN"
 "http://www.w3.org/TR/2001/REC-SVG-20010904/DTD/svg10.dtd">
<svg version="1.0" xmlns="http://www.w3.org/2000/svg"
 width="700.000000pt" height="700.000000pt" viewBox="0 0 700.000000 700.000000"
 preserveAspectRatio="xMidYMid meet">
<metadata>
Created by potrace 1.14, written by Peter Selinger 2001-2017
</metadata>
<g transform="translate(0.000000,700.000000) scale(0.100000,-0.100000)"
fill="#000000" stroke="none">
<path d="M0 3517 l0 -3483 3483 1 3482 0 1 3483 0 3482 -3483 0 -3483 0 0
-3483z m6083 2614 c16 -1 17 -133 17 -2616 l0 -2615 -2615 0 -2615 0 -1 28
c-1 15 -2 1190 -2 2610 -2 1975 1 2585 10 2590 9 5 5114 8 5206 3z"/>
<path d="M1737 5331 c-2 -3 -3 -197 -3 -431 l1 -425 1514 0 1514 0 49 90 c27
50 72 133 100 185 28 52 76 140 106 195 30 55 73 134 95 175 22 41 57 105 78
142 21 37 35 69 31 72 -12 6 -3482 4 -3485 -3z"/>
<path d="M1735 3507 l0 -432 1393 -3 1392 -2 0 22 c1 33 1 723 1 790 l-1 58
-1393 -1 -1392 0 0 -432z"/>
<path d="M1737 2555 c-2 -5 -3 -201 -3 -434 l1 -425 1748 0 c961 -1 1747 1
1747 2 0 2 -15 31 -34 65 -33 62 -76 141 -176 332 -29 55 -61 114 -70 130 -10
17 -48 89 -86 160 -37 72 -75 141 -83 155 l-16 25 -1512 0 c-1000 0 -1514 -3
-1516 -10z"/>
</g>
</svg>
