<svg width="54" height="55" viewBox="0 0 54 55" fill="none" xmlns="http://www.w3.org/2000/svg">
<path d="M31.806 27.0802L24.0367 21.8516C23.8393 21.7189 23.5967 21.7189 23.3996 21.8516C23.2024 21.9841 23.0811 22.2292 23.0811 22.4947V32.9528C23.0811 33.218 23.2024 33.4634 23.3996 33.5959C23.4982 33.6631 23.6081 33.6957 23.7181 33.6957C23.8281 33.6957 23.9381 33.6624 24.0367 33.5959L31.806 28.3673C32.0036 28.2346 32.1245 27.9894 32.1245 27.724C32.1245 27.4586 32.0031 27.2132 31.806 27.0802Z" fill="white"/>
<path fill-rule="evenodd" clip-rule="evenodd" d="M1 27.5C1 42.1122 12.6634 54 26.9994 54C41.3361 54 53 42.1122 53 27.5C53 12.8878 41.3361 1 26.9994 1C12.6634 1 1 12.8878 1 27.5ZM1.75362 27.5C1.75362 13.2997 13.0788 1.74648 26.9993 1.74648C40.9203 1.74648 52.2464 13.2993 52.2464 27.5C52.2464 41.6998 40.9203 53.2535 26.9993 53.2535C13.0788 53.2535 1.75362 41.7007 1.75362 27.5Z" fill="white"/>
<path d="M26.9994 53.5C12.9485 53.5 1.5 41.845 1.5 27.5H0.5C0.5 42.3793 12.3784 54.5 26.9994 54.5V53.5ZM52.5 27.5C52.5 41.845 41.0511 53.5 26.9994 53.5V54.5C41.6212 54.5 53.5 42.3793 53.5 27.5H52.5ZM26.9994 1.5C41.0511 1.5 52.5 13.155 52.5 27.5H53.5C53.5 12.6207 41.6212 0.5 26.9994 0.5V1.5ZM1.5 27.5C1.5 13.155 12.9485 1.5 26.9994 1.5V0.5C12.3784 0.5 0.5 12.6207 0.5 27.5H1.5ZM26.9993 1.24648C12.7933 1.24648 1.25362 13.033 1.25362 27.5H2.25362C2.25362 13.5664 13.3643 2.24648 26.9993 2.24648V1.24648ZM52.7464 27.5C52.7464 13.0325 41.2057 1.24648 26.9993 1.24648V2.24648C40.6348 2.24648 51.7464 13.566 51.7464 27.5H52.7464ZM26.9993 53.7535C41.2057 53.7535 52.7464 41.9665 52.7464 27.5H51.7464C51.7464 41.4331 40.6348 52.7535 26.9993 52.7535V53.7535ZM1.25362 27.5C1.25362 41.9675 12.7933 53.7535 26.9993 53.7535V52.7535C13.3643 52.7535 2.25362 41.434 2.25362 27.5H1.25362Z" fill="white"/>
</svg>
