<svg width="138" height="142" viewBox="0 0 138 142" fill="none" xmlns="http://www.w3.org/2000/svg">
<path d="M81.7547 69.8755L61.1362 55.8668C60.6124 55.5112 59.9687 55.5112 59.4454 55.8668C58.9222 56.2217 58.6001 56.8785 58.6001 57.5896V85.6097C58.6001 86.3202 58.9222 86.9776 59.4454 87.3326C59.7071 87.5127 59.9989 87.6001 60.2908 87.6001C60.5827 87.6001 60.8746 87.5107 61.1362 87.3326L81.7547 73.3239C82.2791 72.9683 82.6001 72.3115 82.6001 71.6003C82.6001 70.8892 82.278 70.2317 81.7547 69.8755Z" fill="white"/>
<path fill-rule="evenodd" clip-rule="evenodd" d="M0 71C0 110.15 30.953 142 68.9983 142C107.046 142 138 110.15 138 71C138 31.8504 107.046 0 68.9983 0C30.953 0 0 31.8504 0 71ZM2 71C2 32.954 32.0553 2 68.9982 2C105.942 2 136 32.9527 136 71C136 109.045 105.942 140 68.9982 140C32.0553 140 2 109.047 2 71Z" fill="white"/>
</svg>
