<svg width="26" height="9" viewBox="0 0 26 9" fill="none" xmlns="http://www.w3.org/2000/svg">
<path fill-rule="evenodd" clip-rule="evenodd" d="M25.5 4.5L0.5 4.5L25.5 4.5Z" fill="white"/>
<path d="M25.5 5H26V4H25.5V5ZM0.146446 4.14645C-0.0488148 4.34171 -0.0488148 4.65829 0.146446 4.85355L3.32843 8.03553C3.52369 8.2308 3.84027 8.2308 4.03553 8.03553C4.2308 7.84027 4.2308 7.52369 4.03553 7.32843L1.20711 4.5L4.03553 1.67157C4.2308 1.47631 4.2308 1.15973 4.03553 0.964466C3.84027 0.769204 3.52369 0.769204 3.32843 0.964466L0.146446 4.14645ZM25.5 4L0.5 4V5L25.5 5V4Z" fill="white"/>
</svg>
