<svg width="40" height="40" viewBox="0 0 40 40" fill="none" xmlns="http://www.w3.org/2000/svg">
<path d="M17.3336 11.2928L17.6871 10.9393L17.3336 10.5857L16.98 10.9393L17.3336 11.2928ZM17.6871 11.6464L17.3336 12L17.3336 12L17.6871 11.6464ZM16.6265 12L16.2729 11.6464L15.9194 12L16.2729 12.3535L16.6265 12ZM16.98 12.3535L17.3336 12L17.3336 12L16.98 12.3535ZM24.6265 20L24.98 20.3535L25.3336 20L24.98 19.6464L24.6265 20ZM16.98 27.6464L17.3336 28H17.3336L16.98 27.6464ZM16.6265 28L16.2729 27.6464L15.9194 28L16.2729 28.3535L16.6265 28ZM17.3336 28.7071L16.98 29.0606L17.3336 29.4142L17.6871 29.0606L17.3336 28.7071ZM17.6871 28.3535L17.3336 28H17.3336L17.6871 28.3535ZM25.3336 20.7071L25.6871 21.0606L25.6871 21.0606L25.3336 20.7071ZM25.6871 20.3535L25.3336 20L25.3336 20L25.6871 20.3535ZM26.0407 20L26.3942 20.3535L26.7478 20L26.3942 19.6464L26.0407 20ZM25.6871 19.6464L25.3336 20V20L25.6871 19.6464ZM25.3336 19.2928L25.6871 18.9393L25.6871 18.9393L25.3336 19.2928ZM16.98 11.6464L17.3336 12L18.0407 11.2928L17.6871 10.9393L16.98 11.6464ZM16.98 12.3535L17.6871 11.6464L16.98 10.9393L16.2729 11.6464L16.98 12.3535ZM17.3336 12L16.98 11.6464L16.2729 12.3535L16.6265 12.7071L17.3336 12ZM24.98 19.6464L17.3336 12L16.6265 12.7071L24.2729 20.3535L24.98 19.6464ZM24.2729 19.6464L16.6265 27.2928L17.3336 28L24.98 20.3535L24.2729 19.6464ZM16.6265 27.2928L16.2729 27.6464L16.98 28.3535L17.3336 28L16.6265 27.2928ZM16.2729 28.3535L16.98 29.0606L17.6871 28.3535L16.98 27.6464L16.2729 28.3535ZM17.6871 29.0606L18.0407 28.7071L17.3336 28L16.98 28.3535L17.6871 29.0606ZM18.0407 28.7071L25.6871 21.0606L24.98 20.3535L17.3336 28L18.0407 28.7071ZM25.3336 20L24.98 20.3535L25.6871 21.0606L26.0407 20.7071L25.3336 20ZM25.6871 19.6464L25.3336 20L26.0407 20.7071L26.3942 20.3535L25.6871 19.6464ZM25.3336 20L25.6871 20.3535L26.3942 19.6464L26.0407 19.2928L25.3336 20ZM24.98 19.6464L25.3336 20L26.0407 19.2928L25.6871 18.9393L24.98 19.6464ZM17.3336 12L24.98 19.6464L25.6871 18.9393L18.0407 11.2928L17.3336 12Z" fill="#999999"/>
<circle cx="20" cy="20" r="19.5" stroke="#999999"/>
</svg>
