<svg width="31" height="31" viewBox="0 0 31 31" fill="none" xmlns="http://www.w3.org/2000/svg">
<path id="Shape" fill-rule="evenodd" clip-rule="evenodd" d="M0 7.19963C0.39546 4.92709 2.17757 2.52564 3.94431 0.760741V0.760598C5.28274 -0.184378 6.64098 -0.325833 8.02256 0.775859L12.0413 4.776C12.9721 5.74015 12.9914 7.45131 12.3985 8.7761C11.9874 9.36339 11.5516 9.95546 11.1168 10.5462C10.8572 10.8989 10.5979 11.2511 10.3445 11.6015C10.1683 12.2797 10.4882 12.9834 10.9994 13.6387C11.6571 14.5241 12.6485 15.5057 13.5608 16.409C13.7276 16.5741 13.8917 16.7365 14.0506 16.8953C15.0616 17.9054 16.3199 19.1314 17.4145 19.9141C17.4479 19.9378 17.4829 19.9629 17.5193 19.989C17.9912 20.3278 18.7029 20.8388 19.3345 20.6127L22.0434 18.6201C23.3492 17.9666 24.965 17.9188 26.211 18.9472L30.2446 22.9771C31.2115 23.9771 31.2913 25.9268 30.2446 26.9773C28.6577 28.4715 26.0413 30.7026 23.9189 30.9328C21.514 31.2977 18.995 30.1373 16.4619 28.4048C13.9288 26.6724 11.3616 24.2908 8.99004 21.9213C4.20131 17.137 0.0595963 11.9633 0 7.19963ZM10.6869 6.12894L6.68304 2.11387L6.68307 2.11382C6.15367 1.85709 5.78119 1.7464 5.25421 2.14339C3.4491 4.05933 2.20327 5.81269 1.92015 7.25882C2.02244 10.8437 5.71072 15.9531 10.3446 20.5827C12.6778 22.9138 15.1756 25.2155 17.5337 26.8283C19.8849 28.4364 22.065 29.2881 23.6213 29.0588C25.038 28.7803 26.3503 27.6907 27.6184 26.6377C28.0567 26.2738 28.4898 25.9142 28.92 25.594C29.1259 25.1226 29.1817 24.7744 28.8902 24.3152L24.8715 20.3002C24.2667 19.9873 23.7244 19.9763 23.0556 20.2407C22.8246 20.4104 22.5935 20.58 22.3624 20.7497C21.7298 21.2141 21.0972 21.6785 20.4657 22.1444C19.1996 22.9827 17.5018 22.3274 16.2982 21.4752C15.0812 20.605 13.883 19.4061 12.9031 18.4255C12.8381 18.3604 12.7741 18.2964 12.7111 18.2334C12.5097 18.0322 12.295 17.8226 12.0729 17.6058C11.2025 16.7561 10.2176 15.7948 9.46637 14.7835C8.56207 13.5553 7.92535 12.0338 8.81147 10.4711L10.7166 7.86876C10.9067 7.25839 11.0444 6.70325 10.6869 6.12894Z" fill="white"/>
</svg>
