<svg width="74" height="76" viewBox="0 0 74 76" fill="none" xmlns="http://www.w3.org/2000/svg">
<path d="M43.8396 37.3982L32.7833 29.9006C32.5024 29.7102 32.1572 29.7102 31.8766 29.9006C31.5961 30.0905 31.4233 30.442 31.4233 30.8226V45.8193C31.4233 46.1996 31.5961 46.5514 31.8766 46.7414C32.0169 46.8378 32.1734 46.8846 32.3299 46.8846C32.4865 46.8846 32.643 46.8367 32.7833 46.7414L43.8396 39.2438C44.1208 39.0535 44.2929 38.702 44.2929 38.3213C44.2929 37.9407 44.1202 37.5888 43.8396 37.3982Z" fill="white"/>
<path fill-rule="evenodd" clip-rule="evenodd" d="M0 38C0 58.9533 16.598 76 36.9991 76C57.4014 76 74 58.9533 74 38C74 17.0467 57.4014 0 36.9991 0C16.598 0 0 17.0467 0 38ZM1.07246 38C1.07246 17.6373 17.1891 1.07042 36.999 1.07042C56.8096 1.07042 72.9275 17.6367 72.9275 38C72.9275 58.362 56.8096 74.9296 36.999 74.9296C17.1891 74.9296 1.07246 58.3633 1.07246 38Z" fill="white"/>
</svg>
