<svg width="5" height="7" viewBox="0 0 5 7" fill="none" xmlns="http://www.w3.org/2000/svg">
<path id="Combined Shape" d="M1.50008 0.792969L1.85363 0.439415L1.50008 0.085862L1.14652 0.439415L1.50008 0.792969ZM1.85363 1.14652L2.20718 0.792969L1.85363 1.14652ZM0.792969 1.50008L0.439415 1.14652L0.085862 1.50008L0.439415 1.85363L0.792969 1.50008ZM1.14652 1.85363L0.792969 2.20718H0.792969L1.14652 1.85363ZM2.79297 3.50008L3.14652 3.85363L3.50008 3.50008L3.14652 3.14652L2.79297 3.50008ZM1.14652 5.14652L1.50008 5.50008L1.14652 5.14652ZM0.792969 5.50008L0.439415 5.14652L0.0858619 5.50008L0.439415 5.85363L0.792969 5.50008ZM1.50008 6.20718L1.14652 6.56074L1.50008 6.91429L1.85363 6.56074L1.50008 6.20718ZM1.85363 5.85363L2.20718 6.20718L1.85363 5.85363ZM3.50008 4.20718L3.85363 4.56074L3.85363 4.56074L3.50008 4.20718ZM3.85363 3.85363L3.50008 3.50008L3.50008 3.50008L3.85363 3.85363ZM4.20718 3.50008L4.56074 3.85363L4.91429 3.50008L4.56074 3.14652L4.20718 3.50008ZM3.85363 3.14652L3.50008 3.50008L3.50008 3.50008L3.85363 3.14652ZM3.50008 2.79297L3.85363 2.43942L3.85363 2.43942L3.50008 2.79297ZM1.14652 1.14652L1.50008 1.50008L2.20718 0.792969L1.85363 0.439415L1.14652 1.14652ZM1.14652 1.85363L1.85363 1.14652L1.14652 0.439415L0.439415 1.14652L1.14652 1.85363ZM1.50008 1.50008L1.14652 1.14652L0.439415 1.85363L0.792969 2.20718L1.50008 1.50008ZM3.14652 3.14652L1.50008 1.50008L0.792969 2.20718L2.43942 3.85363L3.14652 3.14652ZM2.43942 3.14652L0.792969 4.79297L1.50008 5.50008L3.14652 3.85363L2.43942 3.14652ZM0.792969 4.79297L0.439415 5.14652L1.14652 5.85363L1.50008 5.50008L0.792969 4.79297ZM0.439415 5.85363L1.14652 6.56074L1.85363 5.85363L1.14652 5.14652L0.439415 5.85363ZM1.85363 6.56074L2.20718 6.20718L1.50008 5.50008L1.14652 5.85363L1.85363 6.56074ZM2.20718 6.20718L3.85363 4.56074L3.14652 3.85363L1.50008 5.50008L2.20718 6.20718ZM3.50008 3.50008L3.14652 3.85363L3.85363 4.56074L4.20718 4.20718L3.50008 3.50008ZM3.85363 3.14652L3.50008 3.50008L4.20718 4.20718L4.56074 3.85363L3.85363 3.14652ZM3.50008 3.50008L3.85363 3.85363L4.56074 3.14652L4.20718 2.79297L3.50008 3.50008ZM3.14652 3.14652L3.50008 3.50008L4.20718 2.79297L3.85363 2.43942L3.14652 3.14652ZM1.50008 1.50008L3.14652 3.14652L3.85363 2.43942L2.20718 0.792969L1.50008 1.50008Z" fill="white"/>
</svg>
