<svg width="12" height="20" viewBox="0 0 12 20" fill="none" xmlns="http://www.w3.org/2000/svg">
<path d="M2.33357 1.29297L2.68713 0.939416L2.33357 0.585862L1.98002 0.939415L2.33357 1.29297ZM2.68713 1.64652L2.33357 2.00008L2.33357 2.00008L2.68713 1.64652ZM1.62646 2.00008L1.27291 1.64652L0.919358 2.00008L1.27291 2.35363L1.62646 2.00008ZM1.98002 2.35363L2.33357 2.00008L2.33357 2.00008L1.98002 2.35363ZM9.62647 10.0001L9.98002 10.3536L10.3336 10.0001L9.98002 9.64652L9.62647 10.0001ZM1.98002 17.6465L2.33357 18.0001H2.33357L1.98002 17.6465ZM1.62646 18.0001L1.27291 17.6465L0.919358 18.0001L1.27291 18.3536L1.62646 18.0001ZM2.33357 18.7072L1.98002 19.0607L2.33357 19.4143L2.68713 19.0607L2.33357 18.7072ZM2.68713 18.3536L2.33357 18.0001H2.33357L2.68713 18.3536ZM10.3336 10.7072L10.6871 11.0607L10.6871 11.0607L10.3336 10.7072ZM10.6871 10.3536L10.3336 10.0001L10.3336 10.0001L10.6871 10.3536ZM11.0407 10.0001L11.3942 10.3536L11.7478 10.0001L11.3942 9.64652L11.0407 10.0001ZM10.6871 9.64652L10.3336 10.0001V10.0001L10.6871 9.64652ZM10.3336 9.29297L10.6871 8.93941L10.6871 8.93941L10.3336 9.29297ZM1.98002 1.64652L2.33357 2.00008L3.04068 1.29297L2.68713 0.939416L1.98002 1.64652ZM1.98002 2.35363L2.68713 1.64652L1.98002 0.939415L1.27291 1.64652L1.98002 2.35363ZM2.33357 2.00008L1.98002 1.64652L1.27291 2.35363L1.62647 2.70718L2.33357 2.00008ZM9.98002 9.64652L2.33357 2.00008L1.62647 2.70718L9.27291 10.3536L9.98002 9.64652ZM9.27291 9.64652L1.62646 17.293L2.33357 18.0001L9.98002 10.3536L9.27291 9.64652ZM1.62647 17.293L1.27291 17.6465L1.98002 18.3536L2.33357 18.0001L1.62647 17.293ZM1.27291 18.3536L1.98002 19.0607L2.68713 18.3536L1.98002 17.6465L1.27291 18.3536ZM2.68713 19.0607L3.04068 18.7072L2.33357 18.0001L1.98002 18.3536L2.68713 19.0607ZM3.04068 18.7072L10.6871 11.0607L9.98002 10.3536L2.33357 18.0001L3.04068 18.7072ZM10.3336 10.0001L9.98002 10.3536L10.6871 11.0607L11.0407 10.7072L10.3336 10.0001ZM10.6871 9.64652L10.3336 10.0001L11.0407 10.7072L11.3942 10.3536L10.6871 9.64652ZM10.3336 10.0001L10.6871 10.3536L11.3942 9.64652L11.0407 9.29297L10.3336 10.0001ZM9.98002 9.64652L10.3336 10.0001L11.0407 9.29297L10.6871 8.93941L9.98002 9.64652ZM2.33357 2.00008L9.98002 9.64652L10.6871 8.93941L3.04068 1.29297L2.33357 2.00008Z" fill="#999999"/>
</svg>
