<svg width="33" height="34" viewBox="0 0 33 34" fill="none" xmlns="http://www.w3.org/2000/svg">
<path d="M5.76471 32.0446C5.76471 31.4272 5.76471 30.8098 5.76471 30.1925C5.76471 28.7142 5.76471 27.2359 5.76471 25.7576C5.76471 23.9707 5.76471 22.1837 5.76471 20.3967C5.76471 18.8464 5.76471 17.2961 5.76471 15.7492C5.76471 14.9981 5.77843 14.247 5.76471 13.4992C5.76471 13.4889 5.76471 13.4787 5.76471 13.4684C5.76471 12.9299 5.29138 12.4154 4.73574 12.4394C4.17667 12.4634 3.70678 12.8922 3.70678 13.4684C3.70678 14.0857 3.70678 14.7031 3.70678 15.3205C3.70678 16.7988 3.70678 18.2771 3.70678 19.7553C3.70678 21.5423 3.70678 23.3293 3.70678 25.1162C3.70678 26.6665 3.70678 28.2168 3.70678 29.7637C3.70678 30.5149 3.69306 31.266 3.70678 32.0137C3.70678 32.024 3.70678 32.0343 3.70678 32.0446C3.70678 32.5831 4.1801 33.0976 4.73574 33.0736C5.29481 33.0461 5.76471 32.6208 5.76471 32.0446Z" fill="black"/>
<path d="M5.76496 7.08539C5.76496 5.46306 5.76496 3.84073 5.76496 2.2184C5.76496 1.99203 5.76496 1.76908 5.76496 1.54271C5.76496 1.00422 5.29163 0.489739 4.73599 0.513748C4.17692 0.537757 3.70703 0.966492 3.70703 1.54271C3.70703 3.16504 3.70703 4.78738 3.70703 6.40971C3.70703 6.63608 3.70703 6.85902 3.70703 7.08539C3.70703 7.62389 4.18035 8.13837 4.73599 8.11436C5.29506 8.09035 5.76496 7.66161 5.76496 7.08539Z" fill="black"/>
<path d="M6.89654 10.2751C6.89654 10.4192 6.88625 10.5598 6.8691 10.7039C6.88282 10.6113 6.89311 10.5221 6.90683 10.4295C6.8691 10.7073 6.79364 10.9748 6.69075 11.2321C6.72504 11.1498 6.75934 11.0674 6.79364 10.9851C6.71475 11.1669 6.62558 11.3418 6.51582 11.503C6.5021 11.5236 6.4335 11.6505 6.41293 11.6505C6.43693 11.6505 6.59814 11.4207 6.46094 11.5853C6.39921 11.6608 6.33404 11.7328 6.26544 11.8014C6.19684 11.87 6.12482 11.9352 6.04936 11.9969C5.98419 12.0518 5.85386 12.117 6.11453 11.9489C6.06994 11.9764 6.02878 12.0107 5.98419 12.0381C5.8127 12.1513 5.63434 12.2473 5.4457 12.3262C5.52802 12.2919 5.61033 12.2576 5.69265 12.2233C5.43541 12.3296 5.16788 12.4017 4.89006 12.4394C4.98267 12.4257 5.07184 12.4154 5.16445 12.4017C4.87977 12.4394 4.59166 12.4394 4.30698 12.4017C4.39959 12.4154 4.48876 12.4257 4.58137 12.4394C4.30355 12.4017 4.03602 12.3262 3.77878 12.2233C3.8611 12.2576 3.94341 12.2919 4.02573 12.3262C3.84395 12.2473 3.66902 12.1581 3.50782 12.0484C3.48724 12.0347 3.36033 11.9661 3.36033 11.9455C3.36033 11.9695 3.59014 12.1307 3.4255 11.9935C3.35004 11.9318 3.27802 11.8666 3.20942 11.798C3.14082 11.7294 3.07565 11.6574 3.01392 11.5819C2.95904 11.5168 2.89387 11.3864 3.06194 11.6471C3.0345 11.6025 3.0002 11.5613 2.97276 11.5168C2.85957 11.3453 2.76354 11.1669 2.68465 10.9783C2.71895 11.0606 2.75325 11.1429 2.78754 11.2252C2.68122 10.968 2.60919 10.7004 2.57146 10.4226C2.58518 10.5152 2.59547 10.6044 2.60919 10.697C2.57146 10.4123 2.57146 10.1242 2.60919 9.83954C2.59547 9.93215 2.58518 10.0213 2.57146 10.1139C2.60919 9.83611 2.68465 9.56858 2.78754 9.31134C2.75325 9.39366 2.71895 9.47597 2.68465 9.55829C2.76354 9.37651 2.85271 9.20158 2.96247 9.04038C2.97619 9.0198 3.04479 8.89289 3.06536 8.89289C3.04136 8.89289 2.88015 9.1227 3.01735 8.95806C3.07908 8.8826 3.14425 8.81058 3.21285 8.74198C3.28145 8.67338 3.35347 8.60821 3.42893 8.54648C3.4941 8.4916 3.62443 8.42643 3.36376 8.59449C3.40835 8.56706 3.44951 8.53276 3.4941 8.50532C3.66559 8.39213 3.84395 8.29609 4.03259 8.21721C3.95027 8.25151 3.86796 8.28581 3.78564 8.3201C4.04288 8.21378 4.31041 8.14175 4.58823 8.10402C4.49562 8.11774 4.40645 8.12803 4.31384 8.14175C4.59852 8.10402 4.88663 8.10402 5.17131 8.14175C5.0787 8.12803 4.98953 8.11774 4.89692 8.10402C5.17474 8.14175 5.44227 8.21721 5.69951 8.3201C5.61719 8.28581 5.53488 8.25151 5.45256 8.21721C5.63434 8.29609 5.80927 8.38527 5.97047 8.49503C5.99105 8.50875 6.11796 8.57735 6.11796 8.59792C6.11796 8.57392 5.88815 8.41271 6.05279 8.54991C6.12825 8.61164 6.20027 8.67681 6.26887 8.74541C6.33747 8.81401 6.40264 8.88603 6.46437 8.96149C6.51925 9.02666 6.58442 9.15699 6.41636 8.89632C6.44379 8.94091 6.47809 8.98207 6.50553 9.02666C6.61872 9.19815 6.71475 9.37651 6.79364 9.56515C6.75934 9.48283 6.72504 9.40052 6.69075 9.3182C6.79707 9.57544 6.8691 9.84297 6.90683 10.1208C6.89311 10.0282 6.88282 9.93901 6.8691 9.8464C6.88625 9.99045 6.89654 10.1311 6.89654 10.2751C6.89997 10.8136 7.36643 11.3281 7.9255 11.3041C8.48114 11.2801 8.95789 10.8514 8.95446 10.2751C8.9476 9.44167 8.70408 8.57735 8.21361 7.8948C7.67512 7.14709 6.97543 6.60859 6.1111 6.28962C4.53335 5.70654 2.58518 6.23474 1.52535 7.54152C0.935411 8.26866 0.592423 9.09526 0.523826 10.035C0.462088 10.8582 0.68503 11.726 1.1069 12.4291C1.52192 13.1219 2.15988 13.7325 2.90073 14.0686C3.77192 14.463 4.68084 14.5796 5.62405 14.3944C7.55507 14.0171 8.94074 12.2062 8.95446 10.2717C8.95789 9.73321 8.47771 9.21873 7.9255 9.24274C7.363 9.27018 6.89997 9.69892 6.89654 10.2751Z" fill="black"/>
<path d="M17.7181 32.0446C17.7181 30.628 17.7181 29.2081 17.7181 27.7915C17.7181 27.5891 17.7181 27.3868 17.7181 27.1879C17.7181 26.6494 17.2448 26.1349 16.6891 26.1589C16.13 26.1829 15.6602 26.6116 15.6602 27.1879C15.6602 28.6044 15.6602 30.0244 15.6602 31.4409C15.6602 31.6433 15.6602 31.8456 15.6602 32.0446C15.6602 32.5831 16.1335 33.0975 16.6891 33.0735C17.2482 33.0461 17.7181 32.6208 17.7181 32.0446Z" fill="black"/>
<path d="M17.7178 20.8048C17.7178 20.1634 17.7178 19.5221 17.7178 18.8807C17.7178 17.3509 17.7178 15.8212 17.7178 14.2949C17.7178 12.4359 17.7178 10.5735 17.7178 8.71451C17.7178 7.11619 17.7178 5.51787 17.7178 3.91954C17.7178 3.13753 17.7316 2.35552 17.7178 1.57694C17.7178 1.56665 17.7178 1.55636 17.7178 1.54607C17.7178 1.00758 17.2445 0.493096 16.6889 0.517105C16.1298 0.541114 15.6599 0.969849 15.6599 1.54607C15.6599 2.18746 15.6599 2.82884 15.6599 3.47023C15.6599 4.99996 15.6599 6.52968 15.6599 8.05598C15.6599 9.91497 15.6599 11.7774 15.6599 13.6364C15.6599 15.2347 15.6599 16.833 15.6599 18.4314C15.6599 19.2134 15.6462 19.9954 15.6599 20.774C15.6599 20.7843 15.6599 20.7945 15.6599 20.8048C15.6599 21.3433 16.1332 21.8578 16.6889 21.8338C17.2479 21.8098 17.7178 21.3811 17.7178 20.8048Z" fill="black"/>
<path d="M18.8497 23.9947C18.8497 24.1387 18.8394 24.2794 18.8222 24.4234C18.8359 24.3308 18.8462 24.2416 18.86 24.149C18.8222 24.4268 18.7468 24.6944 18.6439 24.9516C18.6782 24.8693 18.7125 24.787 18.7468 24.7047C18.6679 24.8864 18.5787 25.0614 18.4689 25.2226C18.4552 25.2432 18.3866 25.3701 18.366 25.3701C18.3901 25.3701 18.5513 25.1403 18.4141 25.3049C18.3523 25.3803 18.2872 25.4524 18.2186 25.521C18.15 25.5896 18.0779 25.6547 18.0025 25.7165C17.9373 25.7714 17.807 25.8365 18.0676 25.6685C18.0231 25.6959 17.9819 25.7302 17.9373 25.7576C17.7658 25.8708 17.5875 25.9669 17.3988 26.0457C17.4811 26.0114 17.5635 25.9771 17.6458 25.9428C17.3885 26.0492 17.121 26.1212 16.8432 26.1589C16.9358 26.1452 17.025 26.1349 17.1176 26.1212C16.8329 26.1589 16.5448 26.1589 16.2601 26.1212C16.3527 26.1349 16.4419 26.1452 16.5345 26.1589C16.2567 26.1212 15.9891 26.0457 15.7319 25.9428C15.8142 25.9771 15.8965 26.0114 15.9789 26.0457C15.7971 25.9669 15.6221 25.8777 15.4609 25.7679C15.4404 25.7542 15.3135 25.6856 15.3135 25.665C15.3135 25.689 15.5433 25.8502 15.3786 25.713C15.3032 25.6513 15.2311 25.5861 15.1625 25.5175C15.0939 25.4489 15.0288 25.3769 14.967 25.3015C14.9122 25.2363 14.847 25.106 15.0151 25.3666C14.9876 25.322 14.9533 25.2809 14.9259 25.2363C14.8127 25.0648 14.7167 24.8864 14.6378 24.6978C14.6721 24.7801 14.7064 24.8624 14.7407 24.9448C14.6343 24.6875 14.5623 24.42 14.5246 24.1422C14.5383 24.2348 14.5486 24.3239 14.5623 24.4166C14.5246 24.1319 14.5246 23.8438 14.5623 23.5591C14.5486 23.6517 14.5383 23.7409 14.5246 23.8335C14.5623 23.5557 14.6378 23.2881 14.7407 23.0309C14.7064 23.1132 14.6721 23.1955 14.6378 23.2778C14.7167 23.096 14.8058 22.9211 14.9156 22.7599C14.9293 22.7393 14.9979 22.6124 15.0185 22.6124C14.9945 22.6124 14.8333 22.8422 14.9705 22.6776C15.0322 22.6021 15.0974 22.5301 15.166 22.4615C15.2346 22.3929 15.3066 22.3278 15.3821 22.266C15.4472 22.2111 15.5776 22.146 15.3169 22.314C15.3615 22.2866 15.4026 22.2523 15.4472 22.2249C15.6187 22.1117 15.7971 22.0156 15.9857 21.9368C15.9034 21.971 15.8211 22.0053 15.7388 22.0396C15.996 21.9333 16.2635 21.8613 16.5414 21.8236C16.4487 21.8373 16.3596 21.8476 16.267 21.8613C16.5516 21.8236 16.8398 21.8236 17.1244 21.8613C17.0318 21.8476 16.9427 21.8373 16.85 21.8236C17.1279 21.8613 17.3954 21.9368 17.6526 22.0396C17.5703 22.0053 17.488 21.971 17.4057 21.9368C17.5875 22.0156 17.7624 22.1048 17.9236 22.2146C17.9442 22.2283 18.0711 22.2969 18.0711 22.3175C18.0711 22.2935 17.8413 22.1323 18.0059 22.2694C18.0814 22.3312 18.1534 22.3964 18.222 22.465C18.2906 22.5335 18.3558 22.6056 18.4175 22.681C18.4724 22.7462 18.5375 22.8765 18.3695 22.6159C18.3969 22.6605 18.4312 22.7016 18.4587 22.7462C18.5718 22.9177 18.6679 23.096 18.7468 23.2847C18.7125 23.2024 18.6782 23.1201 18.6439 23.0377C18.7502 23.295 18.8222 23.5625 18.86 23.8403C18.8462 23.7477 18.8359 23.6585 18.8222 23.5659C18.8394 23.71 18.8497 23.8506 18.8497 23.9947C18.8531 24.5332 19.3196 25.0476 19.8786 25.0236C20.4343 24.9996 20.911 24.5709 20.9076 23.9947C20.9007 23.1612 20.6572 22.2969 20.1667 21.6143C19.6282 20.8666 18.9285 20.3281 18.0642 20.0092C16.4865 19.4261 14.5383 19.9543 13.4785 21.2611C12.8885 21.9882 12.5455 22.8148 12.477 23.7546C12.4152 24.5778 12.6382 25.4455 13.06 26.1486C13.475 26.8415 14.113 27.452 14.8539 27.7881C15.725 28.1826 16.634 28.2992 17.5772 28.114C19.5082 27.7367 20.8939 25.9257 20.9076 23.9912C20.911 23.4528 20.4308 22.9383 19.8786 22.9623C19.3161 22.9897 18.8531 23.4185 18.8497 23.9947Z" fill="black"/>
<path d="M29.6709 32.0446C29.6709 31.6467 29.6709 31.2454 29.6709 30.8476C29.6709 29.8872 29.6709 28.9303 29.6709 27.9699C29.6709 26.8106 29.6709 25.6479 29.6709 24.4886C29.6709 23.4836 29.6709 22.4787 29.6709 21.4771C29.6709 20.9867 29.6812 20.4962 29.6709 20.0092C29.6709 20.0023 29.6709 19.9954 29.6709 19.9886C29.6709 19.4501 29.1976 18.9356 28.6419 18.9596C28.0829 18.9836 27.613 19.4124 27.613 19.9886C27.613 20.3864 27.613 20.7877 27.613 21.1856C27.613 22.146 27.613 23.1029 27.613 24.0633C27.613 25.2226 27.613 26.3853 27.613 27.5446C27.613 28.5495 27.613 29.5545 27.613 30.556C27.613 31.0465 27.6027 31.537 27.613 32.024C27.613 32.0309 27.613 32.0377 27.613 32.0446C27.613 32.5831 28.0863 33.0976 28.6419 33.0736C29.201 33.0461 29.6709 32.6208 29.6709 32.0446Z" fill="black"/>
<path d="M29.6709 13.6021C29.6709 13.2042 29.6709 12.8029 29.6709 12.4051C29.6709 11.4447 29.6709 10.4878 29.6709 9.52739C29.6709 8.3681 29.6709 7.20537 29.6709 6.04607C29.6709 5.04111 29.6709 4.03616 29.6709 3.03464C29.6709 2.54416 29.6812 2.05369 29.6709 1.56665C29.6709 1.55979 29.6709 1.55293 29.6709 1.54607C29.6709 1.00758 29.1976 0.493096 28.6419 0.517105C28.0829 0.541114 27.613 0.969849 27.613 1.54607C27.613 1.94393 27.613 2.34523 27.613 2.7431C27.613 3.70346 27.613 4.6604 27.613 5.62076C27.613 6.78006 27.613 7.94279 27.613 9.10209C27.613 10.107 27.613 11.112 27.613 12.1135C27.613 12.604 27.6027 13.0945 27.613 13.5815C27.613 13.5884 27.613 13.5952 27.613 13.6021C27.613 14.1406 28.0863 14.6551 28.6419 14.6311C29.201 14.607 29.6709 14.1783 29.6709 13.6021Z" fill="black"/>
<path d="M30.8028 16.7919C30.8028 16.936 30.7925 17.0766 30.7753 17.2207C30.7891 17.128 30.7994 17.0389 30.8131 16.9463C30.7753 17.2241 30.6999 17.4916 30.597 17.7489C30.6313 17.6665 30.6656 17.5842 30.6999 17.5019C30.621 17.6837 30.5318 17.8586 30.4221 18.0198C30.4083 18.0404 30.3398 18.1673 30.3192 18.1673C30.3432 18.1673 30.5044 17.9375 30.3672 18.1021C30.3055 18.1776 30.2403 18.2496 30.1717 18.3182C30.1031 18.3868 30.0311 18.452 29.9556 18.5137C29.8904 18.5686 29.7601 18.6338 30.0208 18.4657C29.9762 18.4931 29.935 18.5274 29.8904 18.5549C29.7189 18.6681 29.5406 18.7641 29.3519 18.843C29.4343 18.8087 29.5166 18.7744 29.5989 18.7401C29.3417 18.8464 29.0741 18.9184 28.7963 18.9562C28.8889 18.9425 28.9781 18.9322 29.0707 18.9184C28.786 18.9562 28.4979 18.9562 28.2132 18.9184C28.3058 18.9322 28.395 18.9425 28.4876 18.9562C28.2098 18.9184 27.9423 18.843 27.685 18.7401C27.7673 18.7744 27.8497 18.8087 27.932 18.843C27.7502 18.7641 27.5753 18.6749 27.4141 18.5652C27.3935 18.5514 27.2666 18.4828 27.2666 18.4623C27.2666 18.4863 27.4964 18.6475 27.3318 18.5103C27.2563 18.4486 27.1843 18.3834 27.1157 18.3148C27.0471 18.2462 26.9819 18.1742 26.9202 18.0987C26.8653 18.0335 26.8001 17.9032 26.9682 18.1639C26.9407 18.1193 26.9064 18.0781 26.879 18.0335C26.7658 17.862 26.6698 17.6837 26.5909 17.495C26.6252 17.5774 26.6595 17.6597 26.6938 17.742C26.5875 17.4848 26.5154 17.2172 26.4777 16.9394C26.4914 17.032 26.5017 17.1212 26.5154 17.2138C26.4777 16.9291 26.4777 16.641 26.5154 16.3563C26.5017 16.4489 26.4914 16.5381 26.4777 16.6307C26.5154 16.3529 26.5909 16.0854 26.6938 15.8281C26.6595 15.9104 26.6252 15.9928 26.5909 16.0751C26.6698 15.8933 26.759 15.7184 26.8687 15.5572C26.8824 15.5366 26.951 15.4097 26.9716 15.4097C26.9476 15.4097 26.7864 15.6395 26.9236 15.4748C26.9853 15.3994 27.0505 15.3274 27.1191 15.2588C27.1877 15.1902 27.2597 15.125 27.3352 15.0633C27.4003 15.0084 27.5307 14.9432 27.27 15.1113C27.3146 15.0838 27.3558 15.0495 27.4003 15.0221C27.5718 14.9089 27.7502 14.8129 27.9388 14.734C27.8565 14.7683 27.7742 14.8026 27.6919 14.8369C27.9491 14.7306 28.2167 14.6585 28.4945 14.6208C28.4019 14.6345 28.3127 14.6448 28.2201 14.6585C28.5048 14.6208 28.7929 14.6208 29.0776 14.6585C28.985 14.6448 28.8958 14.6345 28.8032 14.6208C29.081 14.6585 29.3485 14.734 29.6058 14.8369C29.5234 14.8026 29.4411 14.7683 29.3588 14.734C29.5406 14.8129 29.7155 14.9021 29.8767 15.0118C29.8973 15.0255 30.0242 15.0941 30.0242 15.1147C30.0242 15.0907 29.7944 14.9295 29.959 15.0667C30.0345 15.1284 30.1065 15.1936 30.1751 15.2622C30.2437 15.3308 30.3089 15.4028 30.3706 15.4783C30.4255 15.5434 30.4907 15.6738 30.3226 15.4131C30.35 15.4577 30.3843 15.4989 30.4118 15.5434C30.525 15.7149 30.621 15.8933 30.6999 16.0819C30.6656 15.9996 30.6313 15.9173 30.597 15.835C30.7033 16.0922 30.7753 16.3598 30.8131 16.6376C30.7994 16.545 30.7891 16.4558 30.7753 16.3632C30.7925 16.5072 30.8028 16.6479 30.8028 16.7919C30.8062 17.3304 31.2727 17.8449 31.8317 17.8209C32.3874 17.7969 32.8641 17.3681 32.8607 16.7919C32.8539 15.9585 32.6103 15.0941 32.1199 14.4116C31.5814 13.6639 30.8817 13.1254 30.0173 12.8064C28.4396 12.2233 26.4914 12.7515 25.4316 14.0583C24.8417 14.7854 24.4987 15.612 24.4301 16.5518C24.3683 17.375 24.5913 18.2428 25.0132 18.9459C25.4282 19.6387 26.0661 20.2492 26.807 20.5854C27.6782 20.9798 28.5871 21.0964 29.5303 20.9112C31.4613 20.5339 32.847 18.7229 32.8607 16.7885C32.8641 16.25 32.384 15.7355 31.8317 15.7595C31.2692 15.787 30.8062 16.2157 30.8028 16.7919Z" fill="black"/>
</svg>
